/* XPM */
static char *bitcoin64_xpm[] = {
/* width height num_colors chars_per_pixel */
"    64    64      256            2",
/* colors */
"`` c #1c0624",
"`. c #44861c",
"`# c #a4be94",
"`a c #54b21c",
"`b c #2c461c",
"`c c #7cb65c",
"`d c #5cc61c",
"`e c #3c661c",
"`f c #6cb644",
"`g c #242624",
"`h c #4c9e1c",
"`i c #dce2dc",
"`j c #54be1c",
"`k c #2c361c",
"`l c #34561c",
"`m c #94b684",
"`n c #3c761c",
"`o c #ccd2c4",
"`p c #4c921c",
"`q c #64ba2c",
"`r c #54aa1c",
"`s c #1c1624",
"`t c #54ba1c",
"`u c #345e1c",
"`v c #b4c2a4",
"`w c #8cba6c",
"`x c #6cc234",
"`y c #242e1c",
"`z c #64d61c",
"`A c #3c6e1c",
"`B c #64be2c",
"`C c #2c3e1c",
"`D c #447e1c",
"`E c #448e1c",
"`F c #7cbe54",
"`G c #6cc634",
"`H c #4ca61c",
"`I c #94be84",
"`J c #344e1c",
"`K c #84b65c",
"`L c #5cce1c",
"`M c #74b644",
"`N c #fcfafc",
"`O c #5cbe1c",
"`P c #4c9a1c",
"`Q c #2c2e1c",
"`R c #1c0e24",
"`S c #acc69c",
"`T c #5cb61c",
"`U c #64c62c",
"`V c #54a21c",
"`W c #3c5a1c",
"`X c #44761c",
"`Y c #d4dad4",
"`Z c #241e24",
"`0 c #5cba1c",
"`1 c #3c5e1c",
"`2 c #5cbe2c",
"`3 c #4c8a1c",
"`4 c #acc29c",
"`5 c #3c6a1c",
"`6 c #4ca21c",
"`7 c #eceae4",
"`8 c #2c3a1c",
".` c #9cba84",
".. c #4c961c",
".# c #54ae1c",
".a c #b4c6a4",
".b c #44721c",
".c c #34421c",
".d c #74ba44",
".e c #5cc21c",
".f c #2c321c",
".g c #447a1c",
".h c #dcded4",
".i c #3c621c",
".j c #448a1c",
".k c #54b61c",
".l c #34461c",
".m c #7cba54",
".n c #5cca1c",
".o c #242a1c",
".p c #345a1c",
".q c #241624",
".r c #74be44",
".s c #3c721c",
".t c #2c421c",
".u c #44821c",
".v c #4c8e1c",
".w c #9cbe84",
".x c #34521c",
".y c #84ba5c",
".z c #241224",
".A c #5cba2c",
".B c #eceeec",
".C c #1c0a24",
".D c #448624",
".E c #a4c294",
".F c #54b224",
".G c #3c6624",
".H c #6cba44",
".I c #4c9e24",
".J c #2c3624",
".K c #345624",
".L c #94ba84",
".M c #4c9224",
".N c #64ba34",
".O c #54aa24",
".P c #54ba24",
".Q c #b4c2ac",
".R c #8cbe6c",
".S c #6cc23c",
".T c #242e24",
".U c #3c6e24",
".V c #64be34",
".W c #54a61c",
".X c #74b64c",
".Y c #fcfefc",
".Z c #5cbe24",
".0 c #4c9a24",
".1 c #2c2e24",
".2 c #1c1224",
".3 c #5cb62c",
".4 c #64ca2c",
".5 c #3c5a24",
".6 c #447624",
".7 c #d4ded4",
".8 c #242224",
"#` c #5cba24",
"#. c #344a1c",
"## c #241a24",
"#a c #3c5e24",
"#b c #acc2a4",
"#c c #3c6a24",
"#d c #4ca224",
"#e c #eceaec",
"#f c #2c3a24",
"#g c #9cba8c",
"#h c #4c9624",
"#i c #54ae24",
"#j c #b4c6ac",
"#k c #74ba4c",
"#l c #5cc224",
"#m c #2c3224",
"#n c #447a24",
"#o c #dcdedc",
"#p c #3c6224",
"#q c #7cba5c",
"#r c #5cca24",
"#s c #242a24",
"#t c #2c4224",
"#u c #448224",
"#v c #4c8e24",
"#w c #9cbe8c",
"#x c #345224",
"#y c #84ba64",
"#z c #000000",
"#A c #000000",
"#B c #000000",
"#C c #000000",
"#D c #000000",
"#E c #000000",
"#F c #000000",
"#G c #000000",
"#H c #000000",
"#I c #000000",
"#J c #000000",
"#K c #000000",
"#L c #000000",
"#M c #000000",
"#N c #000000",
"#O c #000000",
"#P c #000000",
"#Q c #000000",
"#R c #000000",
"#S c #000000",
"#T c #000000",
"#U c #000000",
"#V c #000000",
"#W c #000000",
"#X c #000000",
"#Y c #000000",
"#Z c #000000",
"#0 c #000000",
"#1 c #000000",
"#2 c #000000",
"#3 c #000000",
"#4 c #000000",
"#5 c #000000",
"#6 c #000000",
"#7 c #000000",
"#8 c #000000",
"a` c #000000",
"a. c #000000",
"a# c #000000",
"aa c #000000",
"ab c #000000",
"ac c #000000",
"ad c #000000",
"ae c #000000",
"af c #000000",
"ag c #000000",
"ah c #000000",
"ai c #000000",
"aj c #000000",
"ak c #000000",
"al c #000000",
"am c #000000",
"an c #000000",
"ao c #000000",
"ap c #000000",
"aq c #000000",
"ar c #000000",
"as c #000000",
"at c #000000",
"au c #000000",
"av c #000000",
"aw c #000000",
"ax c #000000",
"ay c #000000",
"az c #000000",
"aA c #000000",
"aB c #000000",
"aC c #000000",
"aD c #000000",
"aE c #000000",
"aF c #000000",
"aG c #000000",
"aH c #000000",
"aI c #000000",
"aJ c #000000",
"aK c #000000",
"aL c #000000",
"aM c #000000",
"aN c #000000",
"aO c #000000",
"aP c #000000",
"aQ c #000000",
"aR c #000000",
"aS c #000000",
"aT c #000000",
"aU c #000000",
"aV c #000000",
"aW c #000000",
"aX c #000000",
"aY c #000000",
"aZ c #000000",
"a0 c #000000",
"a1 c #000000",
"a2 c #000000",
"a3 c #000000",
"a4 c #000000",
"a5 c #000000",
"a6 c #000000",
"a7 c #000000",
"a8 c #000000",
/* pixels */
".Y.Y.Y.Y.Y.Y.Y.Y.Y.Y.Y.Y.Y.Y.Y.Y.Y.Y.Y`N.Y.Y.Y.Y#o#j.``c`M`x.A.A`q.A`x`f.y.L#j#o.Y.Y.Y.Y`N.Y.Y.Y.Y.Y.Y.Y.Y.Y.Y.Y.Y.Y.Y.Y.Y.Y.Y.Y",
".Y.Y.Y.Y.Y.Y.Y.Y.Y.Y.Y.Y.Y.Y.Y.Y.Y.Y.Y.Y`N`o.w.X#`.#.##l.#.s.W.e.j.g`t#``E#i`d#`#k`m`o`N.Y.Y.Y.Y.Y.Y.Y.Y.Y.Y.Y.Y.Y.Y.Y.Y.Y.Y.Y.Y",
".Y.Y.Y.Y.Y.Y.Y.Y.Y.Y.Y.Y.Y.Y.Y.Y.Y.Y#e.E.d`j`h.k`O.U.U`O`6.K..`d.s.G`j`6.5`p.e.v#u.e`d.r.E#e.Y.Y.Y.Y.Y.Y.Y.Y.Y.Y.Y.Y.Y.Y.Y.Y.Y.Y",
".Y.Y.Y.Y.Y.Y.Y.Y.Y.Y.Y.Y.Y.Y.Y.Y.B#g.N`0.e#d.5#v.e`.`X.k`a..#i`t`6`h`0`r`D`r`j#c.b.P.##u`T.V#g.B.Y.Y.Y.Y.Y.Y.Y.Y.Y.Y.Y.Y.Y.Y.Y.Y",
".Y.Y.Y.Y.Y.Y.Y.Y.Y.Y.Y.Y.Y.Y`N`S`x`d`3#p.#.k.g..`t.k`t`O`j`d.e`j`d`d`j#l`j.k.k`h`V`O.j.5`6`O`0.V#b`N.Y.Y.Y.Y.Y.Y.Y.Y.Y.Y.Y.Y.Y.Y",
".Y.Y.Y.Y.Y.Y.Y.Y.Y.Y.Y.Y.Y#o.m#i`V`j`V`u.I`O.k`j.e.Z.k`6#h`.#n`n.6.s`D`p.##l`O`t.P`t`V`E#`.##p`E.n.m`i.Y.Y.Y.Y.Y.Y.Y.Y.Y.Y.Y.Y.Y",
".Y.Y.Y.Y.Y.Y.Y.Y.Y.Y.Y.Y`v`U.e`X`u#i`t.#.k`t.e.W`n#x`k`g`Z.q`s.q`s.q`s##.o.x`6`O.k.k#``j`j..`u`V.Z.#`B#j.Y.Y.Y.Y.Y.Y.Y.Y.Y.Y.Y.Y",
".Y.Y.Y.Y.Y.Y.Y.Y.Y.Y.Y.L#``6`O`H.6.#`t`T`j`a#p#s##.2.2.z`s##`Z`Z##`s##.8`Z`s`Z.j`O.k.k`T.k.k#i`O`H#p.j.4.L.Y.Y.Y.Y.Y.Y.Y.Y.Y.Y.Y",
".Y.Y.Y.Y.Y.Y.Y.Y.Y`N`w`L`D#a`6.Z`t.k.F.e..#m.2`s##`y#.`5`D`E.....j`X`b##`Z.8`Z`Z`6`0.k`t`T.k`t`0..`5`r`t`d.R`N.Y.Y.Y.Y.Y.Y.Y.Y.Y",
".Y.Y.Y.Y.Y.Y.Y.Y`N#y.e#`.#`n.I`0`a.k.e`n`Z`s.8`J`E.#`O.e`j`O`j`O`j.e`j`D`Z`Z.8`s`l.e.k.k.k.k.k.k.P`a`O`h#c.##y`N.Y.Y.Y.Y.Y.Y.Y.Y",
".Y.Y.Y.Y.Y.Y.Y.Y.R.##c`6`t`0`t.k.e`t#p.q##.o`p.e`O`t.k.k.k.k.k.k.k`a.k.e`b.q.8##`C`t`T.k#`.k`T.k.k.k`0`n#c.#`d.R.Y.Y.Y.Y.Y.Y.Y.Y",
".Y.Y.Y.Y.Y.Y.Y.w.n.O`5`X`t.k.k`O.D`k`s.8##`E`d`a.k.k.k`T.k`T.k`T.k`T.k`j.x`s.8`s`J`O.k.k.k.k.P`0.k.k.k#i.#.e#d`T.L.Y.Y.Y.Y.Y.Y.Y",
".Y.Y.Y.Y.Y.Y`v.Z`H.e.##i.k`a.Z.s.2##.8##`b`O.k.k`T.k.k.k.k.k.k.k`t.k.k`0`k##.o.z.g`j.k`t.e`0`a`a.P.e`O.k`O`h.p.6#r.a.Y.Y.Y.Y.Y.Y",
".Y.Y.Y.Y.Y.h`U.u.p.0`O.k`O.n.#####`g.8.2.u.e.k.k`t`T`t`T`t`T`t`T.k.k`O`E##.8`s.f.k.k`O`r#c.t.J.f`C#p`h`O`t.W`D.#`0`U#o.Y.Y.Y.Y.Y",
".Y.Y.Y.Y.Y#q.e#i`X`P`j.k.j#n`k.t`8.2.2.l.k.k`T.k.k.k.k.k.k.k.k.k`T`t.k`k##`Z`Z`P`t`O.u`g.q`s.2.2.q`s`Z`A`j.P`t.Z`6.I.m.Y.Y.Y.Y.Y",
".Y.Y.Y.Y`S`0#d`O`t`t`O.p`R`g.t#n`t`X.u.k`0.k.k`0.k`0.k`0.k`0.k.k`t`O`J##`Z`Z`E`O`j`..q`Z`s`Q`b.l`y##`Z.2`1`O`t`h.5`A`d#b.Y.Y.Y.Y",
".Y.Y.Y#e`G`D.p`p`t.Z.u.z`g.W`a`E`O.e`O`t.k.k.k.k.k.k.k.k.k.k.k.Z.k`J.q`s`y`P.e.k.#.o`Z##.i.#`t`O`a.s`Z.8.2.g.e.#`E`a.Z`x#e.Y.Y.Y",
".Y.Y.Y.``d#i#u`6`0`j.K.C#..e`a`t.k.k.k.k`T.k`0.k`0.k#`.k.k#`.e`h.J`R`Z.p`a`O`a.e`n.q`s`A`d`t.k.k.k.n`.##`Z`y.k`t`O`t.0`a#g.Y.Y.Y",
".Y.Y#e.V`r`j`O`t.k`O`P`Z`y.#`t`T.k.k`T.k.k.k.k.k.k.k.k`O.e.#`u.2.2#.`p`O`t.k.k`O#..2`8`t.k`T.k.k`T`a.e`J`s##.j`O`t#v`l#u`x#e.Y.Y",
"`N.Y.E`r.p`D.k`T.k.F.e`u.C.u.e`a.k.k.k`t`T`t`T`t`0.e`t.I`1.8#s`5.W.n.n`j.k`a.k`t.t`R`e.e`a.k`0.k.k.k`O`D`s.q`1.e.k`r.v`a`d`#.Y.Y",
".Y.Y`M.k.D.D`0.k.P.k`O`6##`C`t.k`0.k`T.k.k.k.k.F`6#u`1`b`u.v.#.j`1.x`5`p`t`O.k`0.t`R`A.e.k.k.k.k`T.k`j.j##`s#.`j.k`t.Z`t.F#k.Y.Y",
".Y`o`d.P.e`0.P.k`T.k.k`O#..2`p`O.k.k.P.k`0.k.k`V`h`6.k`d`L#r.#.M`A.T.C##`C`p`O`j`l.C`W.e`a.k`0.k`t.k.e.u.q`s`b`O.k`T`a.s`1.k`o.Y",
".Y`I`V.6`h`t.k.k.k`t.k.e`.`R.x#l.k.k`T.k.k#`.k.k#h.g#p.p.G`.`0`j.n.e`n`Z`s##`5`d`p`s`g.#`O.k.k.k`T.F.e`l`s##.x.e.k.k`a`D`3#l`m.Y",
".Y.X..#p.j`O.k`T.k`T.k`t.#.o`Z`H`0.k`t.k.k`a`O`t`P`X#.`Z`R`s.x.k`h.#`L..`g##`s.p`d`X.2`C.#`t`T`t`a.e`E`Z.8`s`X.e.k.k#``t#l.e#k`N",
"#o.Z.e.k.k.k.k`t.k.P.k.k.Z.x.C`X.e.k.k#``t`D`C`J`D.F`L.#`J##.2.u.5.8`e`O`H`y##.q`l`d`P.x`1`r.k.k#l`6.1##.8.8`r`t.k.k`t.k.v.u.3`i",
".Q`0.0.#`t`T.k`T.k`T.k.k.e.u`R`b`t.k.Z`P..#l`p`g`R.8`D`d`H`g.z`J.j`R.2.f`6.#`g`Z`s`W`d.n`j`t#l`t.u.8##.o`R`5.e.k.k`T`t.#.G`5.k#j",
"`I`h.K.b`t.k.k.P.k.k`T.k`t`V.8.8`V.e`6#.`a.k.e`H`Q`s`Z`h`0.f`s.f.k.v`y.2`Z.v.W.8`Z`s.x`h`r.I.g`C.q`Z.8.2.c.k.k.k.k.k`T`t.#.P.e.`",
"`c`0`h.I`0.k`T.k`0`O.k.k.P.k`8`R.u`d#f.K`d.k.F`d`n##`s`1`t.o##.o`r.e`r`C.2##`D`6`Z####.8.o.8####.8`Z`R.t`a`O`t`T.k`t.k.k.k.O.k`K",
".r`O.e`O.k.k.P`O#d`P.P`0.k`O`l.C`A`h.C`A.e`a.k`O`P.8.q`b`r.8`Z.8`6`j`t`a.l`s`s.s`P.f`s.q`s.q`s`s.2.o.s`O.k`6`r`j`0.k.k.Z`p.p`D#k",
".V.D.s`6`0`t.#.x##`R`k`H.k`d.U``.i.s.C`l.e.k.k.P.W`g`s.l`P`Z`Z.8`p`..k.e.k.l.q.q`u`a`..p.l`b.l.i`.`6`3`J.f`g`g.p.k`T.k`t.W`3`H.S",
"`B`.`e.I`t`O#x```C.s#s.x`d.#.b.C.p`5.z.o.#.P`T`j`P`Z.q`b`h##.8`s`p.f#f..`d.k`b.q`s`C`r`L`d`d.n`r`A`Q`s.2.2.z##`R.b`j.k`T`j`d.Z.A",
".k`O`j`0`j.0.2`l`0`z.s.c.j#p.s```5.g.2.q`e.e`a.e`D`s.q`1.#.8.8`s.j.x`R`Z`5`O`t`b.q##`Z`1`E.v.x`Z`s##`s.o`W`n`8.2.x.e.k.P.W.g`E`B",
"#`.##d.#.e.b##.#`j`h#s.6`y#u`1``.u`H##.8`Z`E.e`j.x##`s.g`j`8##.2.b.s`R`g.q.t.#`O`b.q.8`s`Z##`s`Z`s.o`e.W`t`L.x.C`D.e`a`j`6#p.g.A",
".A`A`l.0.n`u.o`0`P`J`.`3`s.W`b.2`p`d`J`s`Z.o`6.#`g`Z`Z`P.n`A`s`Z`8.#.c.2.8.q.o..`d`l`s####`s##.o.i`V.W`t`d`..z`C.k.k.k`T`t`t`t`q",
"`x`V.0.#.e#c##`r`t#`.n.p.8.#`k`Z`H`O`6.8.8`R.i.u.2##`8`t`t`a.f##`s.g.n.p.q.8####`..n`D`C`k`b`X`r.n.j`l.e`X.2.o.W`j.k`T`t`a`a.k`x",
".r`j.e`t.e`D`R.j.e`a`j.l.T.##s`g.#.k.e`.`s##...t##`s`e.e`a`O..`Z`Z`s.j`L`X`s.8.8`s.g`L.k`a`O`j`t`O.i.q`k.C`C`r`j`T.k.k`O.j.5.D.d",
"#q.W.s.D.e...2`1`j.k.Z`8.J`a`g`Q`a`t`a.e`A.l`p.q.8`Z`6`O`a.k`j.j`Z##`Z.g`L.v`Z`s.8.q`D.e.k.k.k`T`d`H`b.t`D`t`0.k.k.k.k#``6.D`V#q",
".`.I.G`3`t`a#s`Q.k.k`t.J`8`a`g.8.#`t`T`t`t`a.x`s##.l`6`r.e.k`a.e.j.8`s##`u.e`h.8`Z.8##`E.e`a`O`a`E`p`r`d`d.k.k.k`T.k.k`t`O.e#l.`",
".Q`d.k.e.k`O.x.2.M`O.k#m`8.k`Q`Z`6`O.k.k`0`H.8.8.2.j.x`g`P.e.k`a.e`h.f`s.q`k`6`6`Z`Z`Z.o.W`O`P`g.2`R`Z`b`P`O.k.k.P`T`t.#`D`E.e#j",
".h`2`a`P.W`d#u.C`u.e.k#m`k.k`8.2`p`j.k.k.e`X`s`Z.f..`g####`A`t`O`a`O.#`b`s####`n..`Z`Z`s.t`d.x.i`h.p##.q`Z...Z.k.k.k#``H#c.G.3#o",
".Y#k.u#x.j.Z.#`g.o`a.k.f#s`0`b`R`X.e.k`a.e`J.q`s`e`p.2`Z.8.2.c`H.e`a`t`O`A##`s.z`n.j.z.o.z`D`P`a.e.e.g`Z`s`k.k.k`T.k`t`O.k.k#k.Y",
".Y.``a.0.k.k.e`1.C`D`O`g`g`t`1.C.x.e`a.P.k.J####`E.e`p`k`s.8`s.o`..e.k.k.e..`8`s.z`p`e.2`Z.o`a`t`a`a`j.i`s`Z..`j.k`t`a.0.#`U`m.Y",
".Y`o`d`O`a`a`j`h.q`8`6`Z`g.k.u.2.o.#`t`T.#`y##.o`r`t`j.k`5`Z`Z`Z.q`A`O.k`a`j.k`5##`Z`H`k##`s.s.e`j`O`L`.##`s`..e`a#``6`W`5`O`o.Y",
".Y`N.r.I#p.g`t`O.x.2`8`Z`g`a`a`Q.2#p.e.k`a`Q`s.f`a`t`T.k`d`p.8`Z.8.2`n`O.k.k.k.e`H`b.x`.####`8`V`e`D.g`k`Z##`p`O.k`t`t.I`P#k.Y.Y",
".Y.Y.E`r`n`h`0`t`h`Z`Z`Z.o`r.e`A.q##`E.e.k`C`s`Q.#`t.k.k`a`d.u`s.8`Z.o`r`t.k`0.k`h`r`p`r`8`s`Z`E.f.2`s`Z`Z.o`r`t.k.#.#`O.n`#.Y`N",
".Y.Y#e.V`O#l`a.k.e`e.2`Z`k.k`t.k`k`s.o`6`d#x.2`g.W`t`T.k`t`a.e`b.q.8.2`D`O`O`P`C##.q.u.n`e.q`s.g.p`R`Z##`R`5.e`a`O`D#a`h`x#e.Y.Y",
".Y.Y.Y#g.e.j.G`6`t`t#.``.p`d.W.k`p####.f`j`..q`Z`E.e.k.k`T.k`O.j.q.o.2`e.n..`Z.2.8.8`Z.k`E##`s`W`E`k`8.t`D`t.k.k`O`H.6`H#g.Y.Y.Y",
".Y.Y.Y`7.S`n`X.##``t`a`D`r.e`E.D.n.i`s##`J`j`k`R`e.e`a.k`t.k`t.#.o`Z.z`u`O`y`s.t`V`a.p`p`6`Z.q`b.e`t`T`j.e.k`T.k`r.e`j.S#e.Y.Y.Y",
".Y.Y.Y.Y`4.e.k.Z.#`t.k.e.k`j`P`W`j.k`k`Z.2.b`h.2`g.#`j.k`T.k`T`t`8##`s.s`..z.8`V`j`t`0.k..`Z`s.l`O.k.k.k.k.k`O`p`u#v#r`4.Y.Y.Y.Y",
".Y.Y.Y.Y.Y#q`O`E#p.W`t`a.k`0.k#m`p`d`P`Z`Z##`h.v`s`8`T.e.k.k.k`0`C##`s`3`l.C.x`j`T.k.k.e`n.q##`J`j.k`T.k`T.k`O.##n`E.m.Y.Y.Y.Y.Y",
".Y.Y.Y.Y.Y.h`U.s`D.#`O.P.k`a.e.p.T`t`d.s`s##.t`d`V`b.t`p.k.k`t.#`g`Z.8`h.t`R`e.e`a.k.k`O.t##`s`5.e.k.k.k`t`r.0`j`t`G.h.Y.Y.Y.Y.Y",
".Y.Y.Y.Y.Y.Y#b`d.k`j#h`r`0.k.Z`6.q#..k`d#.##`Z...e.e`h`D.M.#.n`A##`s.l`O`8`R`l.e`a`a`d.u`s.8##..`j.k`T.k`O`.`l.M.n`v.Y.Y.Y.Y.Y.Y",
".Y.Y.Y.Y.Y.Y.Y.`#r.M`l.j`O.k.k`O`u.C#f.j`1`s##.u`j.k`d`L`d.P.g`Z.8.q`E.n`J.q.8..`d`d`P`g.8.q.t`O.k.k`t.k`0.k#u.#.w.Y.Y.Y.Y.Y.Y.Y",
".Y.Y.Y.Y.Y.Y.Y.Y.R.W#u`0.k.F`t.k.k`C`R.q`Z`Z`s`h`O`a`X#c.i#f####.2`A`O`j.u.2.8.o`1`u`g`Z##`Z`h`O`a`0.#`A`p.P`d.R.Y.Y.Y.Y.Y.Y.Y.Y",
".Y.Y.Y.Y.Y.Y.Y.Y`N#y.n.P.j`e.#`0.P.##.`s`s`Z`X`j.k`t`p#t##.2`s`y`X`j.k`T`t`J`R`Z`s##`Z`s.o`p`j.k`t`t.k`X.G.e#y`N.Y.Y.Y.Y.Y.Y.Y.Y",
".Y.Y.Y.Y.Y.Y.Y.Y.Y`N#y`B`A`D.P.k`a`j`0`p`D`h`O.k`T.k`O`j`r`E`p.#`O.k.k.k`0.k`e.o##.q.8`l`r`O.k`0.j`3`O`a#``w`N.Y.Y.Y.Y.Y.Y.Y.Y.Y",
".Y.Y.Y.Y.Y.Y.Y.Y.Y.Y.Y`I`O.k`0.u.6.k`t.e`j`j.k.k`t.k.k.k`0`O`j`t.k`T`t.k.k`t`O`r.j.j.W`j`0`t.k`O.u`l.W#r.L.Y.Y.Y.Y.Y.Y.Y.Y.Y.Y.Y",
".Y.Y.Y.Y.Y.Y.Y.Y.Y.Y.Y.Y`v`U.k#a.u`O`r`6`0.k.k`T.k`T.k.k.k.k.k`T.k.k`T`t`T.k.k`t`O.e`j`t`t.u.u`j.#`h`B#j.Y.Y.Y.Y.Y.Y.Y.Y.Y.Y.Y.Y",
".Y.Y.Y.Y.Y.Y.Y.Y.Y.Y.Y.Y.Y#o.m.k.k#`.s.G.k.k`0`t.k`t.k`0.k.k`T.k.k.k.k.k.k`T`t`0.k.k`P`V`O`.`W`r.n.m#o.Y.Y.Y.Y.Y.Y.Y.Y.Y.Y.Y.Y.Y",
".Y.Y.Y.Y.Y.Y.Y.Y.Y.Y.Y.Y.Y.Y`N`S`x#l.s.v.e`h`A`r`t`a#`.k`t.Z.k`t`O`0.k`0`O`t.k`h`a`0`5`5.k.k`r.V#b`N.Y.Y.Y.Y.Y.Y.Y.Y.Y.Y.Y.Y.Y.Y",
".Y.Y.Y.Y.Y.Y.Y.Y.Y.Y.Y.Y.Y.Y.Y.Y#e.`.V#l.e#u#a`a.k.U.v`j`V...k.k`h.#`j`P`E`0`H`W.M.e`p.u#l`B#g.B.Y.Y.Y.Y.Y.Y.Y.Y.Y.Y.Y.Y.Y.Y.Y.Y",
".Y.Y.Y.Y.Y.Y.Y.Y.Y.Y.Y.Y.Y.Y.Y.Y.Y.Y#e`#.H.k.##l`r`l.M`d`n#p`t.##a.j`d#n#a`a.k.U`P.n#l.H`##e.Y.Y`N.Y.Y.Y.Y.Y.Y.Y.Y.Y.Y.Y.Y.Y.Y.Y",
".Y.Y.Y.Y.Y.Y.Y.Y.Y.Y.Y.Y.Y.Y.Y.Y.Y.Y.Y.Y`N`o.L`M#`#i`0.e#h.u`0`a.s...e`6.v#`.e#`#k`m`o`N.Y.Y.Y.Y.Y.Y.Y.Y.Y.Y.Y.Y.Y.Y.Y.Y.Y.Y.Y.Y",
".Y.Y.Y.Y.Y.Y.Y.Y.Y.Y.Y.Y.Y.Y.Y.Y.Y.Y.Y`N.Y.Y.Y.Y#o#j.L`c.d`G.A.A`q.A`x.X#q.L#j#o`N.Y.Y.Y`N.Y.Y.Y.Y.Y.Y.Y.Y.Y.Y.Y.Y.Y.Y.Y.Y.Y.Y.Y"
};
