/* XPM */
static char *octocoin16_xpm[] = {
/* width height num_colors chars_per_pixel */
"    16    16      256            2",
/* colors */
"`` c #ffffff",
"`. c #fefefe",
"`# c #fdfdfd",
"`a c #cacfc7",
"`b c #82a96b",
"`c c #63af36",
"`d c #55ae21",
"`e c #56b021",
"`f c #63ac37",
"`g c #82a56c",
"`h c #cad0c7",
"`i c #f4f4f4",
"`j c #89a776",
"`k c #58b622",
"`l c #4e9d1f",
"`m c #3d6c1f",
"`n c #39631f",
"`o c #36571f",
"`p c #46851e",
"`q c #57b71e",
"`r c #53a722",
"`s c #8aa977",
"`t c #f5f5f5",
"`u c #75a757",
"`v c #5bc020",
"`w c #427820",
"`x c #365520",
"`y c #478c1e",
"`z c #4d9e1e",
"`A c #48901e",
"`B c #221c20",
"`C c #51a31f",
"`D c #5bc41f",
"`E c #5bbe20",
"`F c #75a658",
"`G c #8aaa76",
"`H c #55ae20",
"`I c #437a21",
"`J c #2c3b1f",
"`K c #52ab1e",
"`L c #5bc51d",
"`M c #5cc91d",
"`N c #4a931e",
"`O c #2f431f",
"`P c #478a1e",
"`Q c #34521f",
"`R c #3c6421",
"`S c #56b120",
"`T c #8bab77",
"`U c #c7cdc3",
"`V c #58b422",
"`W c #43801e",
"`X c #427b1e",
"`Y c #5bc61d",
"`Z c #56b81d",
"`0 c #55b41d",
"`1 c #49901d",
"`2 c #385e1e",
"`3 c #53ac1e",
"`4 c #35541f",
"`5 c #50a61d",
"`6 c #3f741e",
"`7 c #3a641e",
"`8 c #81a56c",
".` c #57b71f",
".. c #54ac1f",
".# c #3f721e",
".a c #58bf1d",
".b c #53ae1d",
".c c #46861e",
".d c #427a1e",
".e c #3e6f1e",
".f c #5ecf1d",
".g c #4b981e",
".h c #334c21",
".i c #5abe1f",
".j c #81a36c",
".k c #5fa438",
".l c #56b61e",
".m c #5ac21d",
".n c #3f711e",
".o c #4a951e",
".p c #4b961d",
".q c #385d1e",
".r c #3d6f1f",
".s c #2f421f",
".t c #375b1f",
".u c #44801e",
".v c #2c3a20",
".w c #488d1e",
".x c #59c01d",
".y c #60a239",
".z c #54aa21",
".A c #488c1d",
".B c #41791e",
".C c #2d3c1f",
".D c #53ae1e",
".E c #34531f",
".F c #2d3b1f",
".G c #3f731e",
".H c #324a1f",
".I c #30461f",
".J c #30451f",
".K c #385d1f",
".L c #50a41d",
".M c #53a921",
".N c #53a622",
".O c #427e1e",
".P c #3d6d1e",
".Q c #324d1f",
".R c #3b681e",
".S c #2c391f",
".T c #395f1f",
".U c #3c691e",
".V c #3c671f",
".W c #52aa1d",
".X c #54a821",
".Y c #62ab37",
".Z c #44801f",
".0 c #47891e",
".1 c #56b61d",
".2 c #2f4420",
".3 c #50a61e",
".4 c #3f721f",
".5 c #2e401f",
".6 c #30471f",
".7 c #51a91d",
".8 c #3c681f",
"#` c #4e9f1e",
"#. c #58be1d",
"## c #4f9f1f",
"#a c #345020",
"#b c #4b951e",
"#c c #3a621f",
"#d c #2e3f1f",
"#e c #488f1e",
"#f c #39601f",
"#g c #3f731f",
"#h c #395d20",
"#i c #5ac01f",
"#j c #81a36d",
"#k c #57b122",
"#l c #3c6a1e",
"#m c #45851e",
"#n c #3a631f",
"#o c #4d9d1e",
"#p c #46881e",
"#q c #3e6f1f",
"#r c #34511f",
"#s c #498e1e",
"#t c #57b022",
"#u c #89a976",
"#v c #53a821",
"#w c #3b651f",
"#x c #4a921e",
"#y c #51a71e",
"#z c #2b3820",
"#A c #36591f",
"#B c #2f4220",
"#C c #58ba20",
"#D c #5abd20",
"#E c #8aaa77",
"#F c #74a457",
"#G c #59b820",
"#H c #3e6b20",
"#I c #3d6620",
"#J c #53b01d",
"#K c #35571f",
"#L c #488c1e",
"#M c #3d691e",
"#N c #304121",
"#O c #437a20",
"#P c #5abc20",
"#Q c #55ad22",
"#R c #58b81f",
"#S c #56b51d",
"#T c #55b51d",
"#U c #54b01d",
"#V c #50a120",
"#W c #56b121",
"#X c #81a56b",
"#Y c #60a436",
"#Z c #52a521",
"#0 c #52a221",
"#1 c #60a538",
"#2 c #82a86c",
"#3 c #000000",
"#4 c #000000",
"#5 c #000000",
"#6 c #000000",
"#7 c #000000",
"#8 c #000000",
"a` c #000000",
"a. c #000000",
"a# c #000000",
"aa c #000000",
"ab c #000000",
"ac c #000000",
"ad c #000000",
"ae c #000000",
"af c #000000",
"ag c #000000",
"ah c #000000",
"ai c #000000",
"aj c #000000",
"ak c #000000",
"al c #000000",
"am c #000000",
"an c #000000",
"ao c #000000",
"ap c #000000",
"aq c #000000",
"ar c #000000",
"as c #000000",
"at c #000000",
"au c #000000",
"av c #000000",
"aw c #000000",
"ax c #000000",
"ay c #000000",
"az c #000000",
"aA c #000000",
"aB c #000000",
"aC c #000000",
"aD c #000000",
"aE c #000000",
"aF c #000000",
"aG c #000000",
"aH c #000000",
"aI c #000000",
"aJ c #000000",
"aK c #000000",
"aL c #000000",
"aM c #000000",
"aN c #000000",
"aO c #000000",
"aP c #000000",
"aQ c #000000",
"aR c #000000",
"aS c #000000",
"aT c #000000",
"aU c #000000",
"aV c #000000",
"aW c #000000",
"aX c #000000",
"aY c #000000",
"aZ c #000000",
"a0 c #000000",
"a1 c #000000",
"a2 c #000000",
"a3 c #000000",
"a4 c #000000",
"a5 c #000000",
"a6 c #000000",
"a7 c #000000",
"a8 c #000000",
/* pixels */
"```.`#```a`b`c`d`e`f`g`h```#`.``",
"`.```i`j`k`l`m`n`o`p`q`r`s`i```.",
"```t`u`v`w`x`y`z`A`B`C`D`E`F`t``",
"```G`H`I`J`K`L`M`N`O`P`Q`R`S`T``",
"`U`V`W`X`Y`Z`0`1`2`3`4`5`6`7`V`U",
"`8.`...#.a.b.c`X.d.e.e.f.g.h.i.j",
".k.l.m.n.o.p.q`4.r.s.t.u.v.w.x.y",
".z.A`6.B.C.D.E.F.G`7.H.I.J.K.L.M",
".N.O`p`o.P.Q.R.e.S`4.T.U.B.V.W.X",
".Y.Z.0.E.1.T.2.3.4.5.6.7.8#`#..y",
"`b###a`Q#b#c.d#d#e.w.5#f#g#h#i#j",
"`U#k#l#m#n.E.D#o`J#p#q.E#r#s#t`U",
"``#u`v#v#w.J#x#y#z#A.b#B#C#D#E``",
"```t#F#G#H#I#J#K#L#M#N#O#P#F`t``",
"`.```i#u#Q#R#S#T#.#U#V#W`s`i```.",
"```.`#```h#X#Y#Z#0#1#2`h```#`.``"
};
