/* XPM */
static char *octocoin32_xpm[] = {
/* width height num_colors chars_per_pixel */
"    32    32      256            2",
/* colors */
"`` c #1c0224",
"`. c #44821c",
"`# c #5cc21c",
"`a c #84aa6c",
"`b c #4ca21c",
"`c c #2c421c",
"`d c #54b21c",
"`e c #24221c",
"`f c #3c621c",
"`g c #64aa34",
"`h c #d4d6cc",
"`i c #2c321c",
"`j c #4c921c",
"`k c #6cb244",
"`l c #54aa1c",
"`m c #acbea4",
"`n c #54ba1c",
"`o c #8cb674",
"`p c #34521c",
"`q c #f4f2f4",
"`r c #1c1224",
"`s c #242a1c",
"`t c #4c9a1c",
"`u c #dce2dc",
"`v c #94ae7c",
"`w c #5ca22c",
"`x c #3c721c",
"`y c #2c3a1c",
"`z c #448a1c",
"`A c #acc2a4",
"`B c #344a1c",
"`C c #64b234",
"`D c #5caa2c",
"`E c #64ba34",
"`F c #5cce1c",
"`G c #54a21c",
"`H c #d4ded4",
"`I c #345a1c",
"`J c #241a1c",
"`K c #2c2e1c",
"`L c #5c9e34",
"`M c #84b26c",
"`N c #5cb224",
"`O c #64ae34",
"`P c #5cba1c",
"`Q c #94b67c",
"`R c #549e24",
"`S c #4c8a1c",
"`T c #1c0a24",
"`U c #5cca1c",
"`V c #34461c",
"`W c #24261c",
"`X c #3c6a1c",
"`Y c #2c361c",
"`Z c #4c961c",
"`0 c #54ae1c",
"`1 c #242e1c",
"`2 c #4c9e1c",
"`3 c #447a1c",
"`4 c #2c3e1c",
"`5 c #54a61c",
"`6 c #3c5a1c",
"`7 c #94ba7c",
"`8 c #64c234",
".` c #8cae74",
".. c #2c461c",
".# c #54b61c",
".a c #6ca644",
".b c #d4dacc",
".c c #74ba4c",
".d c #241624",
".e c #e4eae4",
".f c #94b27c",
".g c #344e1c",
".h c #5cae24",
".i c #dcded4",
".j c #241e24",
".k c #5cbe1c",
".l c #4c8e1c",
".m c #1c0624",
".n c #44861c",
".o c #5cc61c",
".p c #84ae6c",
".q c #4ca61c",
".r c #2c4224",
".s c #54b224",
".t c #242224",
".u c #3c661c",
".v c #2c3224",
".w c #4c9224",
".x c #6cb644",
".y c #54aa24",
".z c #54be1c",
".A c #34561c",
".B c #fcfefc",
".C c #1c1624",
".D c #242a24",
".E c #4c9a24",
".F c #e4e6e4",
".G c #5ca62c",
".H c #44761c",
".I c #2c3a24",
".J c #448e1c",
".K c #344a24",
".L c #64b634",
".M c #64be34",
".N c #5cd21c",
".O c #54a224",
".P c #345e1c",
".Q c #241a24",
".R c #2c2e24",
".S c #8cb274",
".T c #5cb22c",
".U c #6cae44",
".V c #5cba24",
".W c #94b684",
".X c #1c0e24",
".Y c #242624",
".Z c #3c6e1c",
".0 c #2c3624",
".1 c #4c9624",
".2 c #54ae24",
".3 c #242e24",
".4 c #4c9e24",
".5 c #447e1c",
".6 c #2c3e24",
".7 c #54a624",
".8 c #3c5e1c",
"#` c #94ba84",
"#. c #6caa44",
"## c #d4dad4",
"#a c #94b284",
"#b c #5cae2c",
"#c c #dcdedc",
"#d c #4c8e24",
"#e c #000000",
"#f c #000000",
"#g c #000000",
"#h c #000000",
"#i c #000000",
"#j c #000000",
"#k c #000000",
"#l c #000000",
"#m c #000000",
"#n c #000000",
"#o c #000000",
"#p c #000000",
"#q c #000000",
"#r c #000000",
"#s c #000000",
"#t c #000000",
"#u c #000000",
"#v c #000000",
"#w c #000000",
"#x c #000000",
"#y c #000000",
"#z c #000000",
"#A c #000000",
"#B c #000000",
"#C c #000000",
"#D c #000000",
"#E c #000000",
"#F c #000000",
"#G c #000000",
"#H c #000000",
"#I c #000000",
"#J c #000000",
"#K c #000000",
"#L c #000000",
"#M c #000000",
"#N c #000000",
"#O c #000000",
"#P c #000000",
"#Q c #000000",
"#R c #000000",
"#S c #000000",
"#T c #000000",
"#U c #000000",
"#V c #000000",
"#W c #000000",
"#X c #000000",
"#Y c #000000",
"#Z c #000000",
"#0 c #000000",
"#1 c #000000",
"#2 c #000000",
"#3 c #000000",
"#4 c #000000",
"#5 c #000000",
"#6 c #000000",
"#7 c #000000",
"#8 c #000000",
"a` c #000000",
"a. c #000000",
"a# c #000000",
"aa c #000000",
"ab c #000000",
"ac c #000000",
"ad c #000000",
"ae c #000000",
"af c #000000",
"ag c #000000",
"ah c #000000",
"ai c #000000",
"aj c #000000",
"ak c #000000",
"al c #000000",
"am c #000000",
"an c #000000",
"ao c #000000",
"ap c #000000",
"aq c #000000",
"ar c #000000",
"as c #000000",
"at c #000000",
"au c #000000",
"av c #000000",
"aw c #000000",
"ax c #000000",
"ay c #000000",
"az c #000000",
"aA c #000000",
"aB c #000000",
"aC c #000000",
"aD c #000000",
"aE c #000000",
"aF c #000000",
"aG c #000000",
"aH c #000000",
"aI c #000000",
"aJ c #000000",
"aK c #000000",
"aL c #000000",
"aM c #000000",
"aN c #000000",
"aO c #000000",
"aP c #000000",
"aQ c #000000",
"aR c #000000",
"aS c #000000",
"aT c #000000",
"aU c #000000",
"aV c #000000",
"aW c #000000",
"aX c #000000",
"aY c #000000",
"aZ c #000000",
"a0 c #000000",
"a1 c #000000",
"a2 c #000000",
"a3 c #000000",
"a4 c #000000",
"a5 c #000000",
"a6 c #000000",
"a7 c #000000",
"a8 c #000000",
/* pixels */
".B.B.B.B.B.B.B.B.B.B.F`A`a`k`w.2`R.T.a`M`m.e.B.B.B.B.B.B.B.B.B.B",
".B.B.B.B.B.B.B.B#c.`#b`R`2`2`2`0`t`l`Z`b.O`g.``H.B.B.B.B.B.B.B.B",
".B.B.B.B.B.B`q`v.V.w.q`l.k.2`b.1`t.4`n.s`0.J`d`R.W`q.B.B.B.B.B.B",
".B.B.B.B.B#c`k.y.l`n`P.5.0`e.Q.j.C`r`K.n.k.z.y`t.y#.`u.B.B.B.B.B",
".B.B.B.B`h`8#d.7.o`0.I.j`I.n`2`b`2.u`J.d`Z.k`d`P.1`l`g##.B.B.B.B",
".B.B.B#c`E`S.s.z.l.Y`Y.#.o.z.k`n.k`#.6.X`3.z`#.z`F.O`t.L#c.B.B.B",
".B.B`q#..E`d.o`3.m.X.J`#`d.#.#.#.#`0`W.j.q.k.n`X.5`n.s.l.c`q.B.B",
".B.B#a`N`G`b.g.A.P.u`n.#.#.#.#.V.o`p`T.n`n.0.C.R.d`1`5.s`Z.W.B.B",
".B##`N`z`U.0.8`n.k`#.#.V.#.V`#`0...t`z`F`p.t`G.z`l.3`Y.#`b.h##.B",
".B.``2.#`#.u`I.o.s.#.#.#`n`l`x`V`f.k`U.s`K.5.o`d.o`j.X`t.2.E`o.B",
".F`C`2.#`n.2.0`l`n.#.V`d`Z.n.4`b`x.r`S.o.D`z`#`d`n`b.d`3.o`G`L.e",
"`A`t.7`P`d.o`p`X`#.#`d`0.E.8.K`2.2.H`r.Z`3.r`d.#.o`x.X.l`#`b`0`m",
"`a`l.s`n`d`#.n.0.z.s`5`I`p`l.6`y`p`I.J.d.u`2`l`#`..d`1`d`n.s`j.p",
".U`j.#.k`#.z.2.D`R`x`d.#.t`I`3.j`l.6`Y`3`r`B`X.0`T.D`5`U.#`P.7.U",
"#b`2`#.1`p.J.o`V.A`V`n`#`f.3`f.C`2`U`p.D.H...R`4.P`3`f.H.#`n`j.G",
".y`2`0.I`x`p.1`c`p.Y`2`U.g.I`f.t`I.6`d`6.C.n.y.H.0.Q.6.C`S`#`b.y",
"`b`G.n`X.s.8.P.6.l.D.I`d.Y`I`j`T.H`W.Q`Z.u.m.C.C`V.q`d.v`2.z.4.7",
"#b.s`z`I.o.5.8.r`0.n.d.u`r.n`#.I`1`b.0`T`.`Z.Z`0`5`I.6.n`#.#`t#b",
"#.`j.q.I`#`x.8.r`l.z`j`c.Y`l.o`0.v.R`b`B.m.n`F.#`z`X`l.z.#.#.7#.",
".p`l.#.6`t`x.u.6`2`#.q.d`p.0.Z.o`n...Q`x...X`Z.H.r.v.n`P.#.s`j.p",
"`m.1`P.Z`f.H`f.6`.`U.H`r.l..`T`B.s.o`x.d`f.v.3`0`F.u.j`0`n`5.s`m",
".F`C`Z`0.I.0`x`f...N.u.t.#`#`x`r`i.q.o.q.P`X.d.5`b.5.C`t.o`t`L.e",
".B.`.q.k`3```x.s.d`S.n.j`0.#`U.Z.m.P.o.w`p.E`Y...0```y`n.O.7.S.B",
".B##.7#d.o.P.1.#.Z.C.w`e.1`#.#.y`J`V.w.j.g.n`I.v.J.H`l.#`5.7##.B",
".B.B.W`d.E.o`#`x`d`V.3`x`V`d.#.#.D`B`4`X`U.k`p.3`#.z.k.y.1`7.B.B",
".B.B`q.a.q.7.z`j`p.#.t`x.E.n`#.y.C.Z.3`z`F.2.j`B.z.k.q.1.c`q.B.B",
".B.B.B#c`C.l.#`#.A.v.t.g`U`Z`x`s`K.#.6.v`Z`4.X`Z.o.4`5`O.i.B.B.B",
".B.B.B.B##.M`S.2.#.u.g.7`n`j`p`6.q`#`t`K`r`W.l.z.4`G.G##.B.B.B.B",
".B.B.B.B.B#c.x.O.1`n`#`#.#.k`#.o`n.#.k.#.4`P.2`G.4`k#c.B.B.B.B.B",
".B.B.B.B.B.B`q#a`N.w.q.4.#.s`n.#.V.#.#.2.#`j.y`R`7`q.B.B.B.B.B.B",
".B.B.B.B.B.B.B.B##`o.G.7`t`G.w.q`Z`b`R`t.y`w.S##.B.B.B.B.B.B.B.B",
".B.B.B.B.B.B.B.B.B.B.e`A`a`k.G.s`R.T.a`M`m.e.B.B.B.B.B.B.B.B.B.B"
};
